<?xml version="1.0" encoding="utf-8"?>
<!-- Generator: Adobe Illustrator 16.0.0, SVG Export Plug-In . SVG Version: 6.00 Build 0)  -->
<!DOCTYPE svg PUBLIC "-//W3C//DTD SVG 1.1//EN" "http://www.w3.org/Graphics/SVG/1.1/DTD/svg11.dtd">
<svg version="1.1" xmlns="http://www.w3.org/2000/svg" xmlns:xlink="http://www.w3.org/1999/xlink" x="0px" y="0px"
	 width="385.983px" height="397.095px" viewBox="0 0 385.983 397.095" enable-background="new 0 0 385.983 397.095"
	 xml:space="preserve">
<g id="Layer_1" display="none">
	
		<image display="inline" overflow="visible" width="495" height="524" xlink:href="chango.jpg"  transform="matrix(1.1657 0 0 1.1657 -85.666 -81.6001)">
	</image>
</g>
<g id="Layer_6">
</g>
<g id="Layer_4">
	<g id="XMLID_2_">
		<g>
			<path fill="#90B7A9" d="M123.009,277.401c7.657,48.99-35.522,52.58-67.217,44.881c-32.001-7.78-48.217-29.301-51.844-62.74
				c-4.481-41.27,20.026-56.95,51.844-52.18C87.611,212.131,117.904,244.721,123.009,277.401z"/>
		</g>
		<g>
		</g>
	</g>
	<path fill="#90B7A9" d="M382.454,259.54c4.48-41.271-20.032-56.949-51.851-52.177s-62.104,37.355-67.215,70.037
		c-7.66,48.995,35.523,52.58,67.215,44.878C362.608,314.498,378.823,292.981,382.454,259.54z"/>
	<path fill="#65A9C1" d="M56.695,237.801c-5.754-65.667,19.663-123.105,89.987-140.15c29.637-7.183,45.168-80.968,45.168-80.968
		l5.455,53.839l9.305-31.1c0,0,13.662,54.441,21.831,55.812c80.703,13.544,102.686,70.212,102.686,142.567
		c0,42.988-27.547,83.969-59.162,113.105c-28.499,26.265-60.312,42.895-78.053,42.895c-17.698,0-49.317-16.645-77.762-42.8
		C84.447,321.852,60.456,280.719,56.695,237.801z"/>
	<g id="XMLID_1_">
		<g>
			<path fill="#90B7A9" d="M308.03,225.131c10.517,50.29,0.911,79.67-36.069,125.78c-12.542,15.63-24.114,20.199-35.063,26.68
				c-25.63,15.17-44.993,16.04-44.993,16.04c-34.15-3.17-75.757-42.63-75.757-42.63c-34.87-42.83-46.5-75.58-35.983-125.87
				c10.872-52,43.698-70.66,71.841-70.66c28.153,0,41.904,41.66,41.904,41.66s14.125-41.66,42.268-41.66
				C264.332,154.471,297.158,173.131,308.03,225.131z"/>
		</g>
		<g>
		</g>
	</g>
	<path fill="#FFFFFF" d="M104.526,334.74c0,0,74.991-30.938,179.103-0.938c0,0-11.142,33.333-89.276,60
		C194.353,393.801,160.034,397.678,104.526,334.74z"/>
	<g>
		<path fill="#FFFFFF" d="M229.493,258.109c0-2.731,1.027-5.208,2.691-7.053c-8.371,0.885-14.056,3.202-14.364,5.373
			c-0.435,3.064-1.001,8.116,6.689,8.872c2.768,0.272,5.452,0.243,8.025,0.232C230.663,263.658,229.493,261.028,229.493,258.109z"/>
		<path fill="#FFFFFF" d="M247.099,264.545c16.055-2.137,25.389-6.994,25.389-6.994s-10.695-5.167-25.947-6.541
			c1.688,1.849,2.731,4.344,2.731,7.099C249.271,260.545,248.455,262.781,247.099,264.545z"/>
		<path fill="#FFFFFF" d="M232.185,251.056c2.668-0.374,6.831-0.516,11.516-0.255c0.964,0.054,1.909,0.125,2.84,0.209"/>
		<path fill="#FFFFFF" d="M247.099,264.545c-4.375,0.582-9.243,0.964-14.563,0.988"/>
	</g>
	<g>
		<path fill="#FFFFFF" stroke="#000000" stroke-width="3" stroke-miterlimit="10" d="M158.882,258.109
			c0-2.731-1.027-5.208-2.691-7.053c8.372,0.885,14.056,3.202,14.364,5.373c0.435,3.064,1.001,8.116-6.689,8.872
			c-2.768,0.272-5.453,0.243-8.026,0.232C157.713,263.658,158.882,261.028,158.882,258.109z"/>
		<path fill="#FFFFFF" stroke="#000000" stroke-width="3" stroke-miterlimit="10" d="M141.278,264.545
			c-16.056-2.137-25.389-6.994-25.389-6.994s10.695-5.167,25.947-6.541c-1.688,1.849-2.731,4.344-2.731,7.099
			C139.104,260.545,139.921,262.781,141.278,264.545z"/>
		<path fill="none" stroke="#000000" stroke-width="3" stroke-miterlimit="10" d="M141.359,251.056c0,0,12.456-1.078,14.832,0
			c-2.668-0.374-6.831-0.516-11.516-0.255c-0.963,0.054-1.909,0.125-2.839,0.209c-5.056,8.209-0.558,13.535-0.558,13.535
			c4.374,0.582,9.242,0.964,14.563,0.988"/>
	</g>
</g>
<g id="Layer_5">
	<path d="M141.359,251.056c0,0,10.537-1.411,14.832,0c0,0,6.199,7.544-0.351,14.478l-14.563-0.988
		C141.278,264.545,136.306,258.145,141.359,251.056z"/>
	<path d="M232.185,251.056c0,0,10.996-1.007,14.841,0c0,0,5.109,6.966,0.415,13.008c0,0-8.591,1.617-15.256,1.47
		C232.185,265.534,225.977,258.416,232.185,251.056z"/>
</g>
<g id="Layer_3">
	<path fill="none" stroke="#0F353F" stroke-width="5" stroke-miterlimit="10" d="M56.695,237.801
		C47.563,170,76.358,114.696,146.682,97.651c29.637-7.183,45.168-80.968,45.168-80.968l5.455,53.839l9.305-31.1
		c0,0,13.662,54.441,21.831,55.812c80.703,13.544,108.146,70.418,102.686,142.567c-8.387,110.797-119.474,156-137.215,156
		C176.212,393.801,71.94,351.001,56.695,237.801z"/>
	<path fill="none" stroke="#0F353F" stroke-width="2" stroke-miterlimit="10" d="M271.964,350.907
		c34.872-42.834,46.585-75.485,36.068-125.773c-10.875-52-43.701-70.667-71.849-70.667c-28.146,0-42.273,41.668-42.273,41.668
		s-13.753-41.668-41.9-41.668c-28.147,0-60.975,18.667-71.849,70.667c-10.517,50.288,1.115,83.034,35.987,125.868"/>
</g>
<g id="Layer_2">
	<path fill="none" stroke="#0F353F" stroke-width="2" stroke-miterlimit="10" d="M187.078,293.468c0,0-12.611-11.333-20.912,0
		c-7.094,9.685-3.361,17.667-3.361,17.667"/>
	<path fill="none" stroke="#0F353F" stroke-width="2" stroke-miterlimit="10" d="M183.527,298.135c0,0-14.993,2.333-13.612,7.333
		s6.001,1.244,8.68-2.089"/>
	<path fill="none" stroke="#0F353F" stroke-width="3" stroke-miterlimit="10" d="M104.526,334.395c0,0,22.55-13,89.792-13
		c67.241,0,89.791,13,89.791,13"/>
	
		<line fill="none" stroke="#0F353F" stroke-width="2" stroke-miterlimit="10" x1="194.317" y1="321.395" x2="194.317" y2="393.801"/>
	
		<line fill="none" stroke="#0F353F" stroke-width="2" stroke-miterlimit="10" x1="160.733" y1="322.395" x2="160.733" y2="383.801"/>
	
		<line fill="none" stroke="#0F353F" stroke-width="2" stroke-miterlimit="10" x1="132.906" y1="326.395" x2="132.906" y2="364.801"/>
	
		<line fill="none" stroke="#0F353F" stroke-width="2" stroke-miterlimit="10" x1="227.901" y1="322.395" x2="227.901" y2="383.801"/>
	
		<line fill="none" stroke="#0F353F" stroke-width="2" stroke-miterlimit="10" x1="255.729" y1="326.395" x2="255.729" y2="364.801"/>
	<g>
		<path fill="none" stroke="#000000" stroke-width="3" stroke-miterlimit="10" d="M229.493,258.109c0-2.731,1.027-5.208,2.691-7.053
			c-8.371,0.885-14.056,3.202-14.364,5.373c-0.435,3.064-1.001,8.116,6.689,8.872c2.768,0.272,5.452,0.243,8.025,0.232
			C230.663,263.658,229.493,261.028,229.493,258.109z"/>
		<path fill="none" stroke="#000000" stroke-width="3" stroke-miterlimit="10" d="M247.099,264.545
			c16.055-2.137,25.389-6.994,25.389-6.994s-10.695-5.167-25.947-6.541c1.688,1.849,2.731,4.344,2.731,7.099
			C249.271,260.545,248.455,262.781,247.099,264.545z"/>
		<path fill="none" stroke="#000000" stroke-width="3" stroke-miterlimit="10" d="M232.185,251.056
			c2.668-0.374,6.831-0.516,11.516-0.255c0.964,0.054,1.909,0.125,2.84,0.209"/>
		<path fill="none" stroke="#000000" stroke-width="3" stroke-miterlimit="10" d="M247.099,264.545
			c-4.375,0.582-9.243,0.964-14.563,0.988"/>
	</g>
	<path fill="none" stroke="#0F353F" stroke-width="2" stroke-miterlimit="10" d="M201.116,293.468c0,0,12.609-11.333,20.911,0
		c7.094,9.685,3.361,17.667,3.361,17.667"/>
	<path fill="none" stroke="#0F353F" stroke-width="2" stroke-miterlimit="10" d="M204.667,298.135c0,0,14.993,2.333,13.611,7.333
		c-1.381,5-6,1.244-8.68-2.089"/>
	<path fill="none" stroke="#0F353F" stroke-width="2" stroke-miterlimit="10" d="M113.219,348.598c0,0,35.042,10,81.331,10
		c46.291,0,80.372-10,80.372-10"/>
</g>
<g id="Layer_7">
	<circle fill="#FFFFFF" cx="234.197" cy="256.741" r="2.7"/>
	<circle fill="#FFFFFF" cx="143.292" cy="256.741" r="2.7"/>
	<circle fill="#FFFFFF" cx="147.407" cy="259.259" r="1.438"/>
	<circle fill="#FFFFFF" cx="238.406" cy="259.259" r="1.438"/>
</g>
</svg>
